<svg xmlns="http://www.w3.org/2000/svg" id="Layer_1" data-name="Layer 1" viewBox="0 0 120 120"><defs><style>.cls-1{fill:#ffdf43;}.cls-2{fill:#ffcd1b;}.cls-3{fill:#fff;}.cls-4,.cls-5{fill:#263238;}.cls-5{stroke:#fff;stroke-miterlimit:10;stroke-width:1.19px;}</style></defs><path class="cls-1" d="M105.23,57.37q0-14.44,0-28.87a4.48,4.48,0,0,0-4.87-4.84H68.1V17.52c0-2.19-1-3.23-3.23-3.23H44.18c-2.34,0-3.35,1-3.35,3.37v6h-32c-3.33,0-5.07,1.75-5.07,5.07q0,14.16,0,28.32l35.71.11c0-.44,0-.88,0-1.33a3.5,3.5,0,0,1,3.81-3.75H65.48c2.67,0,4,1.37,4,4.06,0,.38,0,.76,0,1.13ZM64.61,23.6H44.34c0-1.54,0-3,0-4.47a1.45,1.45,0,0,1,1.34-1.45,5.4,5.4,0,0,1,.7,0H62.56c1.57,0,2,.48,2,2.08Zm4.9,33.66a.2.2,0,0,1,0,.11c0,.66,0,1.31,0,2A3.44,3.44,0,0,1,65.87,63c-3.81,0-7.61,0-11.43,0H43.2a3.47,3.47,0,0,1-3.76-3.7c0-.64,0-1.29,0-1.92v-.21L3.71,57.05V83.68c0,3.25,1.78,5.06,5,5.06h91.73A4.45,4.45,0,0,0,105.22,84q0-13.31,0-26.6Z"></path><path class="cls-2" d="M105.23,57.37q0,13.31,0,26.6a4.45,4.45,0,0,1-4.77,4.76H8.72c-3.23,0-5-1.81-5-5.06V57.37Z"></path><path class="cls-3" d="M44.34,23.59c0-1.53,0-3,0-4.47a1.45,1.45,0,0,1,1.34-1.44,5.3,5.3,0,0,1,.69,0H62.56c1.57,0,2,.48,2,2.07v3.86Z"></path><path class="cls-4" d="M54.45,63H43.2a3.49,3.49,0,0,1-3.77-3.7c0-1.15,0-2.3,0-3.46a3.5,3.5,0,0,1,3.81-3.75H65.48c2.66,0,4,1.38,4,4.06,0,1.07,0,2.14,0,3.2A3.44,3.44,0,0,1,65.87,63c-3.81,0-7.62,0-11.42,0Z"></path><path class="cls-5" d="M116.26,69.75v0a1.63,1.63,0,0,0-1.61-1.59c-6.56,0-12.65-1.42-18-5.57a1.55,1.55,0,0,0-1.92,0C89.57,66.65,83.59,68,77.32,68.13a2.06,2.06,0,0,0-2,2c-.08,4.62-.4,9.11.14,13.49,1,7.85,5.39,14,12.08,18,8.85,5.37,7.54,5.49,16.23.07,8.41-5.24,12.94-13,12.51-23.33C116.15,75.5,116.26,72.62,116.26,69.75Z"></path><path class="cls-1" d="M94.23,85.63c-1.65,1.64-2.18,1.63-3.86,0-.71-.71-1.41-1.44-2.14-2.19a1.46,1.46,0,0,0-2.12,0l0,0a1.45,1.45,0,0,0,0,2l5.2,5.19a1.46,1.46,0,0,0,2.07,0L105.25,78.8a1.47,1.47,0,0,0,0-2.1l0,0a1.47,1.47,0,0,0-2.06,0Q98.68,81.18,94.23,85.63Z"></path></svg>