<svg xmlns="http://www.w3.org/2000/svg" id="Layer_1" data-name="Layer 1" viewBox="0 0 120 120"><defs><style>.cls-1{fill:#f1f2f2;}.cls-2{fill:#fff;}.cls-3{fill:#ffdf43;}.cls-4{fill:#ffcd1b;}.cls-5{fill:#263238;}</style></defs><path class="cls-1" d="M62.08,118.07C77,112.87,88,99.61,94.61,88.32a82.31,82.31,0,0,0,11.21-43.61l-.41-19.6c-.13-6.24-3.5-9.22-8.68-10.61L59.29,1.93"></path><path class="cls-2" d="M59.29,1.93,22.77,15.87C18.12,18.18,14,19.6,14.12,24l.45,21.78a82.39,82.39,0,0,0,13,43.11,75.51,75.51,0,0,0,34.48,29.2"></path><path class="cls-3" d="M61.82,105.42A60,60,0,0,1,34.54,82.13,65.09,65.09,0,0,1,24.23,48l-.32-15.28C23.84,29.28,25.86,26,30,24L59.52,12.21,59.29,1.93,22.77,15.87C18.94,17.64,14,19.6,14.12,24l.45,21.78a82.39,82.39,0,0,0,13,43.11,75.51,75.51,0,0,0,34.48,29.2Z"></path><path class="cls-4" d="M62.08,118.07a45,45,0,0,0,7.24-3.29,65.52,65.52,0,0,0,15.19-12.47A83.57,83.57,0,0,0,95,87.65a79.27,79.27,0,0,0,10.84-44l-.35-18c-.21-9-4.82-9.52-8.72-11.13L59.29,1.93l.23,10.28L89.88,22.89c4.19,1.85,6.35,5.05,6.42,8.52l.32,15.28A65.22,65.22,0,0,1,87.75,81.2c-5.25,8.93-13.11,18.18-25.93,24.22Z"></path><rect class="cls-5" x="56.52" y="37.1" width="7.75" height="34.74" transform="translate(-1.13 1.28) rotate(-1.2)"></rect><rect class="cls-5" x="43.02" y="50.59" width="34.74" height="7.75" transform="translate(-1.13 1.28) rotate(-1.2)"></rect></svg>