<svg xmlns="http://www.w3.org/2000/svg" viewBox="0 0 120 120"><defs><style>.cls-1{isolation:isolate;}.cls-2{fill:#ffdf43;}.cls-3{fill:#ececec;mix-blend-mode:multiply;}.cls-4{fill:#ffcc19;}.cls-5{fill:#263238;}.cls-6{fill:#fff59d;}.cls-7{fill:#f8b133;}</style></defs><g class="cls-1"><g id="Layer_1" data-name="Layer 1"><path class="cls-2" d="M98.6,108.87H19.18a3,3,0,0,1-3.05-3.05V44.89h85.52v60.93A3,3,0,0,1,98.6,108.87Z"></path><polygon class="cls-2" points="16.14 44.89 101.5 44.89 57.93 15.98 16.14 44.89"></polygon><path class="cls-3" d="M90.63,97.26c-10.8.59-22.34-.38-32.11-3.92-9.94-3.61-18-9.51-22.44-16.92s-4.95-15.66-3-23.44c2.12-8.27,6.94-15.76,13.35-22.73A112.61,112.61,0,0,1,58.12,19.57c.7-.58,1.49-1.25,2.36-1.9L57.93,16,16.14,44.89h0v64h85.52V95.1A40.74,40.74,0,0,1,90.63,97.26Z"></path><rect class="cls-4" x="16.13" y="102.6" width="85.52" height="6.27"></rect><path class="cls-4" d="M60.06,22.12l47.69,31.64a2.27,2.27,0,0,0,2,.26l3.72-1.23a2.78,2.78,0,0,0,.66-4.95L60.06,12a2.3,2.3,0,0,0-2.56,0L4.84,48.43a2.28,2.28,0,0,0,.55,4L9.82,54a2.28,2.28,0,0,0,2-.29L57.5,22.15A2.3,2.3,0,0,1,60.06,22.12Z"></path><path class="cls-5" d="M6.44,52.42,58.29,16.55a.67.67,0,0,1,.73,0l54.1,35.89a.62.62,0,0,0,.56.07h0a2.55,2.55,0,0,0,.61-4.54L59.14,11.37a.65.65,0,0,0-.73,0L2.32,50.17a.66.66,0,0,0,.16,1.16L5.85,52.5A.72.72,0,0,0,6.44,52.42Z"></path><path class="cls-5" d="M93.19,58.87H70.68a2,2,0,0,0-2,2v46a2,2,0,0,0,2,2H93.19a2,2,0,0,0,2-2v-46A2,2,0,0,0,93.19,58.87ZM71,103.55V64.19a2,2,0,0,1,2-2h18a2,2,0,0,1,2,2v39.36a2,2,0,0,1-2,2h-18A2,2,0,0,1,71,103.55Z"></path><rect class="cls-6" x="70.95" y="62.21" width="21.98" height="43.32" rx="1.62"></rect><path class="cls-7" d="M91.39,84a2,2,0,1,1-2-2.13A2.07,2.07,0,0,1,91.39,84Z"></path><rect class="cls-5" x="24.44" y="59.4" width="30.36" height="30.19" rx="2.08"></rect><rect class="cls-6" x="26.12" y="61.34" width="12.38" height="12.31" rx="1.49"></rect><rect class="cls-6" x="40.73" y="61.34" width="12.38" height="12.31" rx="1.49"></rect><rect class="cls-6" x="26.11" y="75.33" width="12.38" height="12.32" rx="1.49"></rect><rect class="cls-6" x="40.73" y="75.33" width="12.38" height="12.32" rx="1.49"></rect></g></g></svg>