<svg xmlns="http://www.w3.org/2000/svg" id="Layer_1" data-name="Layer 1" viewBox="0 0 512 512"><defs><style>.cls-1,.cls-3{fill:none;stroke-miterlimit:10;}.cls-1{stroke:#ffef87;stroke-width:0.92px;}.cls-2{fill:#ffef87;}.cls-3{stroke:#ffcc19;stroke-width:0.93px;}.cls-4{fill:#ffcc19;}.cls-5{fill:#3c474c;}.cls-6{fill:#ccc;}.cls-7{fill:#f5f5f5;}.cls-8{opacity:0.9;}.cls-9{fill:#ffdf43;}.cls-10{fill:#fff9c2;}</style></defs><path class="cls-1" d="M345,101.64A162.95,162.95,0,1,1,102.18,202.73"></path><circle class="cls-2" cx="102.98" cy="202.05" r="4.13"></circle><path class="cls-3" d="M466,200.34a216,216,0,0,1,5.25,47.48C471.21,366.68,374.86,463,256,463S40.79,366.68,40.79,247.82c0-31.39,9.67-64,9.67-64,19.19-61.1,60.6-94.59,69.11-101.25A203.17,203.17,0,0,1,195,45.85"></path><circle class="cls-4" cx="464.27" cy="198.57" r="4.13"></circle><path class="cls-5" d="M349.24,119.65c-.1,6.47-.09,23.15,0,48.32V463.23c-2.69,8.21-9.25,17.12-24.49,21.1V484l-4-362.38-13.22-11.1L267.17,76.62,174.65,18.88l-.8-.5L194,7.46s3.31-3.64,19.52,4.63l.82.42.12.06.3.16,59,30.8c15.4,7,35.5,17.59,53.61,31.77,5.66,4.43,11.67,9.63,16.11,18.09.26.49.5,1,.73,1.47a52.35,52.35,0,0,1,5,21.53C349.27,117.77,349.25,118.87,349.24,119.65Z"></path><path class="cls-6" d="M344.24,94.86l-24.67,13.06-8.39,4.44-3.62-1.83-142.45-72,0-7a13.22,13.22,0,0,1,9.52-12.66l-.8-.5L194,7.46s3.31-3.64,19.52,4.63l.82.42.12.06.3.16,59,30.8c15.4,7,35.5,17.59,53.61,31.77,5.66,4.43,11.67,9.63,16.11,18.09C343.77,93.88,344,94.37,344.24,94.86Z"></path><path class="cls-7" d="M329.41,147.19l-1.28,327.18a15.35,15.35,0,0,1-3.39,9.64,15.51,15.51,0,0,1-19.87,3.79L193.22,423.93a58.51,58.51,0,0,1-29.45-51l1.34-334.39,0-7a13.22,13.22,0,0,1,9.52-12.66,13.06,13.06,0,0,1,10,1.05L286.27,74.65a82,82,0,0,1,43.14,72.54Z"></path><path class="cls-8" d="M224.15,85.23,251,100.45s5.3,1.32,7.72-1.32,1.11-7.28-8.38-13.46c-4.66-3-9.51-5.77-14.44-8.36-2.78-1.47-6.42-4.44-9.58-4a6.7,6.7,0,0,0-4.55,3C220.48,78.71,221.83,83.91,224.15,85.23Z"></path><ellipse class="cls-4" cx="238.32" cy="246.72" rx="41.45" ry="50.96" transform="translate(-35.49 40.09) rotate(-8.95)"></ellipse><polygon class="cls-4" points="242.85 365.36 255.59 360.56 255.59 440.97 281.4 455.54 270.64 462.65 242.35 448.25 242.85 365.36"></polygon><polygon class="cls-9" points="158.46 397.62 169.21 390.67 180.13 397.29 179.14 326.47 189.73 321.84 255.59 360.56 242.85 365.36 179.14 412.85 158.46 397.62"></polygon><polygon class="cls-10" points="179.31 328.62 179.31 410.03 158.46 397.62 206.61 505.34 270.64 462.65 244.34 447.76 242.85 365.36 179.31 328.62"></polygon></svg>