<svg xmlns="http://www.w3.org/2000/svg" id="Layer_1" data-name="Layer 1" viewBox="0 0 120 120"><defs><style>.cls-1{fill:#ffdf43;}.cls-2{fill:#ffcd1b;}.cls-3{fill:#263238;}</style></defs><path class="cls-1" d="M77.93,54.23c-12-9.68-23.82-9.69-35.83,0-.05-.47-.14-1-.16-1.45A80,80,0,0,1,43.81,32.6C45.11,26.71,47.12,21,51,16.23,53.26,13.36,56,11,59.89,11s6.84,2.34,9.17,5.33A38,38,0,0,1,75.59,30.6a81.38,81.38,0,0,1,2.46,21.81C78,53,78,53.56,77.93,54.23Z"></path><path class="cls-2" d="M98.89,108.61h-14c-2.44,0-2.41,0-3.33-2.31a23.62,23.62,0,0,0-7.22-9.81c-.91-.72-1-1.3-.27-2.18,6-7.51,13.94-10.44,23.19-8.64,8.42,1.64,14.32,6.87,17.3,15.06a38.66,38.66,0,0,1,1.33,5.24c.4,1.94-.17,2.62-2.22,2.63-4.94,0-9.88,0-14.83,0Z"></path><path class="cls-2" d="M20.91,108.61c-4.8,0-9.6,0-14.4,0-2.42,0-2.81-.57-2.46-2.94a23.29,23.29,0,0,1,9.71-16.11A22.65,22.65,0,0,1,33.7,86.11a22.78,22.78,0,0,1,12,8c.82,1,.85,1.65-.22,2.53a21.9,21.9,0,0,0-7.38,10.69c-.36,1.2-1.31,1.3-2.34,1.3Z"></path><path class="cls-1" d="M59.93,114.49H42.74c-1.86,0-2.2-.33-2-2.14.76-6.91,4.38-11.87,10.42-15.15a18.56,18.56,0,0,1,13.12-1.65,18.16,18.16,0,0,1,12.88,10,29.68,29.68,0,0,1,2.07,6.95c.34,1.61-.16,2-1.81,2Z"></path><path class="cls-2" d="M38,50.7c-6.74-4-13.14-3.64-19.73,1.08A41.33,41.33,0,0,1,28.41,25.46,40.17,40.17,0,0,1,48.35,12.7l.25.38a43.88,43.88,0,0,0-3.48,5.51,90.86,90.86,0,0,0-4.18,10.89C39,35.89,38.5,42.54,38.26,49.21A9.8,9.8,0,0,1,38,50.7Z"></path><path class="cls-2" d="M81.9,50.73c-.09-.95-.15-1.66-.23-2.37-.63-5.44-.93-11-2-16.31-1.29-6.64-3.64-13-8-18.34a1.1,1.1,0,0,1-.23-.78,35.39,35.39,0,0,1,17.16,9.44c8.29,7.86,12.55,17.56,13.16,29.42C95.23,47.11,88.82,46.69,81.9,50.73Z"></path><path class="cls-2" d="M92.65,82.75C85.78,83,80,76.94,80,70.25a12.67,12.67,0,1,1,25.33,0C105.25,76.86,99.69,83,92.65,82.75Z"></path><path class="cls-2" d="M27.39,82.76A12.62,12.62,0,1,1,40,70.19,12.66,12.66,0,0,1,27.39,82.76Z"></path><path class="cls-1" d="M60.05,71.75A10.47,10.47,0,1,1,49.49,82.26,10.54,10.54,0,0,1,60.05,71.75Z"></path><path class="cls-3" d="M56.74,59.53c0-2.35,0-4.7,0-7.05,0-1.12.41-1.56,1.52-1.65,5-.41,5-.43,5,4.51,0,3.72,0,7.44,0,11.16,0,1.29-.48,1.76-1.75,1.66a26.78,26.78,0,0,0-3.23,0c-1,0-1.53-.36-1.52-1.45C56.77,64.33,56.74,61.93,56.74,59.53Z"></path><path class="cls-3" d="M59.2,5.51h1.54a2.4,2.4,0,0,1,2.4,2.4v1.2a0,0,0,0,1,0,0H56.81a0,0,0,0,1,0,0V7.91A2.4,2.4,0,0,1,59.2,5.51Z"></path></svg>