<svg xmlns="http://www.w3.org/2000/svg" id="Layer_1" data-name="Layer 1" viewBox="0 0 120 120"><defs><style>.cls-1{fill:#263238;}.cls-2{fill:#efb103;}.cls-3{fill:#ffcd1b;}.cls-4{fill:#f2db5a;}.cls-5{fill:#ffdf43;}.cls-6{fill:#ffff95;}.cls-7{fill:#ce8800;}</style></defs><g id="_4" data-name="4"><path class="cls-1" d="M99.28,66A16.77,16.77,0,1,0,116.05,82.8,16.77,16.77,0,0,0,99.28,66Zm0,27.47A10.7,10.7,0,1,1,110,82.8,10.7,10.7,0,0,1,99.28,93.5Z"></path><path class="cls-2" d="M99.28,76a6.77,6.77,0,1,0,6.77,6.76A6.77,6.77,0,0,0,99.28,76Z"></path><path class="cls-1" d="M26,66A16.77,16.77,0,1,0,42.79,82.8,16.77,16.77,0,0,0,26,66ZM26,93.5A10.7,10.7,0,1,1,36.71,82.8,10.7,10.7,0,0,1,26,93.5Z"></path><path class="cls-2" d="M26,76a6.77,6.77,0,1,0,6.76,6.76A6.77,6.77,0,0,0,26,76Z"></path><path class="cls-2" d="M100,84.83h0a2.09,2.09,0,0,0,1.37-2.63L84.16,27.8a2.1,2.1,0,0,0-2.63-1.36h0a2.09,2.09,0,0,0-1.37,2.63l17.2,54.4A2.1,2.1,0,0,0,100,84.83Z"></path><path class="cls-3" d="M108,66.2c-8.85-8.15-18.31-7.76-20.32,2,0,0-.06.08-.09.11l6.65,5.23Z"></path><path class="cls-4" d="M107.49,65.79c-7.92-7-16.18-7.18-19.1,0Z"></path><path class="cls-5" d="M94.89,46.26l-13-21.13h-2.3a2,2,0,0,0-1.68,3C93,61.84,68.75,81.41,68.75,81.41H59.52a6.59,6.59,0,0,1-6.58-6.59l-2.65-26.3H26.89A23,23,0,0,0,4,71.47H4a12.37,12.37,0,0,0,9.7,12.07l34.43,7.58H65.55c6.51,0,9.47-4.71,12.55-9.16l17-22.11C97.49,56.06,97,50.89,94.89,46.26Z"></path><path class="cls-4" d="M82.54,55A42.94,42.94,0,0,1,68.75,81.41H59.52a6.59,6.59,0,0,1-6.58-6.59l-2.65-26.3L48.71,51a8.78,8.78,0,0,1-7.37,4H18.41A14,14,0,0,0,5,64.57a23.22,23.22,0,0,0-1,7.35,12.26,12.26,0,0,0,9.7,11.62l34.43,7.58H65.55c6.51,0,9.47-4.71,12.55-9.16l17-22.11,0,0A3.21,3.21,0,0,0,92.3,55Z"></path><path class="cls-4" d="M38,83.48,14.79,78.37a7,7,0,0,1-5.54-6.74A17.66,17.66,0,0,1,26.89,53.82H37.2A10.44,10.44,0,0,1,47.64,64.27l.51,10.66A8.36,8.36,0,0,1,38,83.48Z"></path><path class="cls-6" d="M47,60.78a10.44,10.44,0,0,0-9.83-7H26.89a17.62,17.62,0,0,0-14,7Z"></path><path class="cls-3" d="M39.83,81.57a6.91,6.91,0,0,1-1.36-.15L15.24,76.31a4.93,4.93,0,0,1-3.88-4.7A15.55,15.55,0,0,1,26.89,55.93H37.2a8.35,8.35,0,0,1,8.33,8.34L46,75a6.18,6.18,0,0,1-1.71,4.59A6.25,6.25,0,0,1,39.83,81.57Z"></path><path class="cls-1" d="M24.54,48.52H51.91A3.53,3.53,0,0,0,55.44,45h0a3.53,3.53,0,0,0-3.53-3.53H29.84a5.3,5.3,0,0,0-5.3,5.3Z"></path><path class="cls-4" d="M89.94,20.45l-1.14,0c-6.93,0-12.54,2.85-12.54,6.36s5.61,6.37,12.54,6.37l1.14,0Z"></path><path class="cls-4" d="M88.63,25.42a1.31,1.31,0,0,0,1.31-1.31V20.45l-1.14,0c-6,0-11,2.13-12.24,5Z"></path><path class="cls-1" d="M87.67,20.45V33.13c.37,0,.75,0,1.13,0l1.14,0V20.45Z"></path><circle class="cls-7" cx="89.62" cy="49.47" r="2.06"></circle><path class="cls-1" d="M81.74,29.19a1.07,1.07,0,0,1-1-.76,10.09,10.09,0,0,1-.29-1.76c-.11-1-.21-1.69-.63-2a3.11,3.11,0,0,0-2.17-.17L72,25.25a1.06,1.06,0,0,1-.29-2.1l5.65-.77a4.8,4.8,0,0,1,3.78.61,4.66,4.66,0,0,1,1.41,3.46,7.67,7.67,0,0,0,.22,1.38A1.06,1.06,0,0,1,82,29.14,1,1,0,0,1,81.74,29.19Z"></path><path class="cls-1" d="M73.31,31.62l7.31-.79a2.27,2.27,0,0,0,2-2.51h0a2.29,2.29,0,0,0-2.51-2l-7.32.78a2.29,2.29,0,0,0-2,2.51h0A2.29,2.29,0,0,0,73.31,31.62Z"></path></g></svg>