<svg xmlns="http://www.w3.org/2000/svg" viewBox="0 0 120 120"><defs><style>.cls-1{isolation:isolate;}.cls-2{fill:#ffdf43;}.cls-3{fill:#263238;}.cls-4{fill:#fff59d;}.cls-5{fill:#f8b133;}.cls-6{fill:#ffcd1b;}.cls-7{fill:#ececec;mix-blend-mode:multiply;}.cls-8{fill:#ffcc19;}.cls-9{fill:#ecce3e;}</style></defs><g class="cls-1"><g id="Layer_1" data-name="Layer 1"><path class="cls-2" d="M112,48.53V95.7s0,0,0,.07a3.41,3.41,0,0,1-2.21,2.51H10.2a3.37,3.37,0,0,1-2.27-2.91h0l0-39.18,0-.54-.14-7.11Z"></path><path class="cls-3" d="M31.07,31H88.9c3.54,0,7.09.05,10.63,0a6,6,0,0,1,4.58,1.86c4.32,4.63,8.58,9.3,12.85,14a16,16,0,0,1,.78,1.55c-.6.55-1.41.11-2.17.11-3.08,0-6.16.1-9.24,0-3.92.1-7.85.11-11.77,0-3.8.1-7.6.11-11.4,0-3.92.1-7.84.11-11.76,0-3.8.1-7.6.11-11.39,0-3.8.1-7.6.11-11.4,0-3.92.1-7.84.11-11.76,0-3.8.1-7.6.11-11.4,0q-5.89.16-11.78,0c-3.09.14-6.18,0-9.27,0-.77,0-1.54.54-2.14,0,2.27-3.1,5.16-6.29,7.67-9.19,1.79-2.05,3.68-4,5.53-6a6.41,6.41,0,0,1,5-2.24C24,31.09,27.53,31.05,31.07,31Z"></path><path class="cls-4" d="M45.21,68.29H56.95a2.38,2.38,0,0,1,2.38,2.38V97.49a.68.68,0,0,1-.68.68H43.51a.68.68,0,0,1-.68-.68V70.67A2.38,2.38,0,0,1,45.21,68.29Z"></path><path class="cls-4" d="M63,68.29H74.73a2.38,2.38,0,0,1,2.38,2.38V97.49a.68.68,0,0,1-.68.68H61.29a.68.68,0,0,1-.68-.68V70.67A2.38,2.38,0,0,1,63,68.29Z"></path><circle class="cls-5" cx="55.87" cy="83.41" r="1.1"></circle><circle class="cls-5" cx="64.14" cy="83.41" r="1.1"></circle><path class="cls-6" d="M38.74,67.55V79.84a2.29,2.29,0,0,1-2.28,2.29H13.72a2.3,2.3,0,0,1-2.29-2.29V67.55a2.29,2.29,0,0,1,2.29-2.28H36.46A2.28,2.28,0,0,1,38.74,67.55Z"></path><path class="cls-5" d="M38.74,67.55v.65H11.43v-.65a2.29,2.29,0,0,1,2.29-2.28H36.46A2.28,2.28,0,0,1,38.74,67.55Z"></path><path class="cls-6" d="M108.59,67.55V79.84a2.3,2.3,0,0,1-2.29,2.29H83.57a2.3,2.3,0,0,1-2.3-2.29V67.55a2.3,2.3,0,0,1,2.3-2.28H106.3A2.29,2.29,0,0,1,108.59,67.55Z"></path><path class="cls-5" d="M108.59,67.55v.65H81.27v-.65a2.3,2.3,0,0,1,2.3-2.28H106.3A2.29,2.29,0,0,1,108.59,67.55Z"></path><path class="cls-7" d="M112,95v0a3.28,3.28,0,0,1-.06.63s0,0,0,.07a3.41,3.41,0,0,1-2.21,2.51H10.2a3.37,3.37,0,0,1-2.27-2.91h0a2.62,2.62,0,0,1,0-.27l0-39.45a.94.94,0,0,1,.58-.46,3.09,3.09,0,0,0,1-.38,16.52,16.52,0,0,0,3.92-3.88l.37-.47,1.06-1.4c.49.05-.27,2,.28,2.11a16.9,16.9,0,0,0,.2,2.18h0a32.57,32.57,0,0,0,4.11,11.38c.56,1,1.18,1.94,1.89,2.93A45.74,45.74,0,0,0,37.44,81.37c1.66.88,3.46,1.73,5.38,2.54a85.92,85.92,0,0,0,16.49,4.92l1.29.25a133.46,133.46,0,0,0,16.5,2,215.29,215.29,0,0,0,33.66-.84l1.19.15H112C112,91.92,112,93.48,112,95Z"></path><path class="cls-8" d="M13.6,48.44v1.44a5.21,5.21,0,0,1-.23,1.58,5.63,5.63,0,0,1-3.92,3.88,5.35,5.35,0,0,1-1.51.21h-.2a5.66,5.66,0,0,1-5.47-5.66V48.44Z"></path><path class="cls-9" d="M13.64,48.44H25a0,0,0,0,1,0,0v1.84a5.26,5.26,0,0,1-5.26,5.26H18.9a5.26,5.26,0,0,1-5.26-5.26V48.44A0,0,0,0,1,13.64,48.44Z"></path><path class="cls-8" d="M25.1,48.44H36.43a0,0,0,0,1,0,0v1.84a5.26,5.26,0,0,1-5.26,5.26h-.81a5.26,5.26,0,0,1-5.26-5.26V48.44A0,0,0,0,1,25.1,48.44Z"></path><path class="cls-9" d="M36.46,48.44H47.8a0,0,0,0,1,0,0v1.84a5.26,5.26,0,0,1-5.26,5.26h-.81a5.26,5.26,0,0,1-5.26-5.26V48.44A0,0,0,0,1,36.46,48.44Z"></path><path class="cls-8" d="M47.83,48.44H59.16a0,0,0,0,1,0,0v1.84a5.26,5.26,0,0,1-5.26,5.26h-.81a5.26,5.26,0,0,1-5.26-5.26V48.44A0,0,0,0,1,47.83,48.44Z"></path><path class="cls-9" d="M59.19,48.44H70.53a0,0,0,0,1,0,0v1.84a5.26,5.26,0,0,1-5.26,5.26h-.81a5.26,5.26,0,0,1-5.26-5.26V48.44a0,0,0,0,1,0,0Z"></path><path class="cls-8" d="M70.65,48.44H82a0,0,0,0,1,0,0v1.84a5.26,5.26,0,0,1-5.26,5.26h-.81a5.26,5.26,0,0,1-5.26-5.26V48.44A0,0,0,0,1,70.65,48.44Z"></path><path class="cls-9" d="M82,48.44H93.35a0,0,0,0,1,0,0v1.84a5.26,5.26,0,0,1-5.26,5.26h-.81A5.26,5.26,0,0,1,82,50.28V48.44A0,0,0,0,1,82,48.44Z"></path><path class="cls-8" d="M93.47,48.44h12.11a0,0,0,0,1,0,0v1.84a5.26,5.26,0,0,1-5.26,5.26H98.74a5.26,5.26,0,0,1-5.26-5.26V48.44a0,0,0,0,1,0,0Z"></path><path class="cls-9" d="M105.62,48.44h12.11a0,0,0,0,1,0,0v1.84a5.26,5.26,0,0,1-5.26,5.26h-1.59a5.26,5.26,0,0,1-5.26-5.26V48.44a0,0,0,0,1,0,0Z"></path><rect class="cls-5" x="50.38" y="22.47" width="4.21" height="8.6"></rect><rect class="cls-5" x="65.41" y="22.47" width="4.21" height="8.6"></rect><rect class="cls-2" x="43.39" y="13.54" width="33.22" height="13.24" rx="1.7"></rect><path class="cls-3" d="M51.26,23.62a2.22,2.22,0,0,1-1-.75,2,2,0,0,1-.36-1.16h1.56a1,1,0,0,0,.32.71,1.11,1.11,0,0,0,.79.26,1.21,1.21,0,0,0,.8-.24.8.8,0,0,0,.3-.64.72.72,0,0,0-.2-.53,1.45,1.45,0,0,0-.5-.33c-.2-.08-.47-.17-.82-.27A10.33,10.33,0,0,1,51,20.26a2,2,0,0,1-.76-.62,1.75,1.75,0,0,1-.32-1.1,2,2,0,0,1,.32-1.12,2.09,2.09,0,0,1,.91-.74,3.34,3.34,0,0,1,1.34-.26,2.93,2.93,0,0,1,1.83.55,2,2,0,0,1,.77,1.53h-1.6a.84.84,0,0,0-.32-.62,1.22,1.22,0,0,0-.79-.25,1,1,0,0,0-.68.22.81.81,0,0,0-.26.64.64.64,0,0,0,.2.48,1.39,1.39,0,0,0,.48.32,8.05,8.05,0,0,0,.8.27,8.2,8.2,0,0,1,1.16.42,2,2,0,0,1,.77.63,1.71,1.71,0,0,1,.33,1.09,2,2,0,0,1-.31,1.09,2.14,2.14,0,0,1-.88.8,3.13,3.13,0,0,1-1.39.29A3.35,3.35,0,0,1,51.26,23.62Z"></path><path class="cls-3" d="M64.41,16.53v7.28H63V19.07l-2,4.74H59.89l-2-4.74v4.74H56.47V16.53h1.66l2.31,5.41,2.32-5.41Z"></path><path class="cls-3" d="M67.31,17.71v1.82h2.45v1.16H67.31v1.93h2.76v1.19H65.85V16.52h4.22v1.19Z"></path></g></g></svg>