<svg xmlns="http://www.w3.org/2000/svg" id="Layer_1" data-name="Layer 1" viewBox="0 0 120 120"><defs><style>.cls-1{fill:#fff59d;}.cls-2{fill:#263238;}.cls-3{fill:#ffcd1b;}.cls-4,.cls-6{fill:#fff;}.cls-4{stroke:#1d1d1b;stroke-miterlimit:10;stroke-width:0.41px;}.cls-5{fill:#ffdf43;}</style></defs><rect class="cls-1" x="67.07" y="7.45" width="4.36" height="27.98"></rect><rect class="cls-1" x="69.2" y="7.45" width="2.23" height="27.98"></rect><rect class="cls-1" x="45.59" y="7.45" width="4.36" height="27.98"></rect><rect class="cls-1" x="47.73" y="7.45" width="2.23" height="27.98"></rect><path class="cls-1" d="M85.77,57.08l2.41-.47a.91.91,0,0,0,.73-.9V49.17a.91.91,0,0,0-.73-.9l-2.41-.47a.93.93,0,0,0-1.09.9v7.48A.93.93,0,0,0,85.77,57.08Z"></path><path class="cls-1" d="M85.77,92.36l2.41-.47a.91.91,0,0,0,.73-.89V84.45a.92.92,0,0,0-.73-.9l-2.41-.46a.91.91,0,0,0-1.09.89v7.48A.92.92,0,0,0,85.77,92.36Z"></path><circle class="cls-2" cx="73.25" cy="112.39" r="4.55"></circle><path class="cls-1" d="M79.24,102l-6.47,2.53a.5.5,0,0,0-.33.48v3.69a.93.93,0,0,1-.35.72,2.4,2.4,0,0,0-.84,2.34,2.44,2.44,0,0,0,1.9,1.91,2.52,2.52,0,0,0,2.33-.8,15,15,0,0,0,4.46-10.36A.51.51,0,0,0,79.24,102Z"></path><path class="cls-3" d="M74.24,111.4a.8.8,0,1,1-.79-.8A.8.8,0,0,1,74.24,111.4Z"></path><circle class="cls-2" cx="39.7" cy="112.39" r="4.55"></circle><path class="cls-1" d="M45.69,102l-6.47,2.53a.5.5,0,0,0-.33.48v3.69a.93.93,0,0,1-.35.72,2.4,2.4,0,0,0-.84,2.34,2.44,2.44,0,0,0,1.9,1.91,2.52,2.52,0,0,0,2.33-.8,15,15,0,0,0,4.46-10.36A.51.51,0,0,0,45.69,102Z"></path><path class="cls-3" d="M40.69,111.4a.8.8,0,1,1-.79-.8A.8.8,0,0,1,40.69,111.4Z"></path><rect class="cls-4" x="32.4" y="34.13" width="52.21" height="71.9" rx="15.18"></rect><path class="cls-3" d="M44.19,107.21A13.17,13.17,0,0,1,31.09,94l.18-48a13.17,13.17,0,0,1,13.2-13.1c7.09,0,20.46,0,28.36.11a13.2,13.2,0,0,1,13.1,13.2l-.18,48.05a13.18,13.18,0,0,1-13.2,13.11Z"></path><rect class="cls-5" x="32.4" y="34.13" width="52.21" height="71.9" rx="15.18"></rect><path class="cls-2" d="M58.53,26.76a19.14,19.14,0,0,0-11.25,3.91L48,32.92h1A12.62,12.62,0,0,1,68.11,33l1-.09.63-2.16A19.36,19.36,0,0,0,58.53,26.76Z"></path><path class="cls-2" d="M68.11,33h5.44a.24.24,0,0,0,.1-.46l-3.92-1.79Z"></path><path class="cls-2" d="M48.9,32.92H43.47a.24.24,0,0,1-.1-.46l3.91-1.79Z"></path><path class="cls-2" d="M44.88,6.46V8.63A1.39,1.39,0,0,0,46.27,10h3.39a.87.87,0,0,0,.87-.87h0a2,2,0,0,1,1.95-2H64.54a2,2,0,0,1,1.95,2h0a.87.87,0,0,0,.87.87h3.39a1.39,1.39,0,0,0,1.39-1.39V6.46a3.4,3.4,0,0,0-3.4-3.39H48.27A3.39,3.39,0,0,0,44.88,6.46Z"></path><rect class="cls-6" x="46.21" y="43.25" width="2.4" height="51.86" rx="1.09"></rect><rect class="cls-6" x="57.35" y="43.25" width="2.4" height="51.86" rx="1.09"></rect><rect class="cls-6" x="68.48" y="43.25" width="2.4" height="51.86" rx="1.09"></rect></svg>